Genre:Action | Crime | Drama
Language:English
IMDb:http://www.imdb.com/title/tt1433108/
Source:IMAGiNE/LKRG Thx.
Sample:Yes
Subtitles:Romana


Format : AVI
Format/Info : Audio Video Interleave
File size : 778 MiB
Duration : 1h 33mn
Overall bit rate : 1 163 Kbps


Video
Muxing mode : Packed bitstream
Codec ID : XVID
Codec ID/Hint : XviD
Duration : 1h 33mn
Bit rate : 960 Kbps
Width : 720 pixels
Height : 384 pixels
Display aspect ratio : 1.875
Frame rate : 29.970 fps
Color space : YUV
Chroma subsampling : 4:2:0
Bit depth : 8 bits
Scan type : Progressive
Bits/(Pixel*Frame) : 0.116
Stream size : 642 MiB (82%)
Writing library : XviD 1.2.1 (UTC 2008-12-04)

Audio
ID : 1
Format : MPEG Audio
Format version : Version 1
Format profile : Layer 3
Codec ID : 55
Codec ID/Hint : MP3
Duration : 1h 33mn
Bit rate mode : Constant
Bit rate : 192 Kbps
Channel(s) : 2 channels
Sampling rate : 44.1 KHz
Stream size : 128 MiB (17%)
Alignment : Split accross interleaves
Interleave, duration : 33 ms (1.00 video frame)
Interleave, preload duration : 500 ms


Plot:
An ex-con sets out to avenge his brother's death after they were double-crossed during a heist years ago. During his campaign, however, he's tracked by a veteran cop and an egocentric hit man.




================================== 
http://thepiratebay.org/user/hiest
==================================

